# xmcd
#
# Track frame offsets:
#       150
#       14457
#       27457
#       40510
#       50870
#       68950
#       89790
#       111824
#       125966
#       146945
#
# Disc length: 2186 seconds
#
# Revision: 0
# Processed by: cddbd v1.5.1PL2 Copyright (c) Steve Scherf et al.
# Submitted via: WaveLab 4.01
#
DISCID=9d08880a
DTITLE=The Fat River Band - The Last Great Guitar Heist
DYEAR=2005
DGENRE=
TTITLE0=Best Friend's Mother
TTITLE1=San Diego
TTITLE2=American Boy
TTITLE3=Why Can't I Fall For You?
TTITLE4=Heartbreak Ridge
TTITLE5=Tom
TTITLE6=Heartworn Highway
TTITLE7=The Ghost of Johnny Cash
TTITLE8=Lets all go down together
TTITLE9=My old country barn
EXTD=
EXTT0=
EXTT1=
EXTT2=
EXTT3=
EXTT4=
EXTT5=
EXTT6=
EXTT7=
EXTT8=
EXTT9=
PLAYORDER=
